<svg xmlns="http://www.w3.org/2000/svg" width="15" height="15" viewBox="0 0 15 15"><defs><linearGradient id="g" x1="0" y1="0" x2="0" y2="1"><stop offset="0" stop-color="#fdfdfd"/><stop offset="1" stop-color="#eaeaea"/></linearGradient></defs><rect x="0.5" y="0.5" width="14" height="14" fill="url(#g)" stroke="#b9b9b9"/><rect x="1.5" y="1.5" width="12" height="12" fill="none" stroke="#fdfdfd" stroke-width="1"/><path d="M6.66 8.89Q6.95 7.91 7.40 6.87Q7.85 5.82 8.46 4.86Q9.07 3.90 9.37 3.59Q9.66 3.29 9.87 3.12Q10.08 2.94 10.67 2.93Q11.26 2.91 11.56 2.95Q11.77 2.97 11.91 3.11Q12.06 3.25 12.08 3.46Q12.10 3.61 12.04 3.72Q11.98 3.82 11.77 4.02Q10.76 4.92 9.66 6.84Q8.55 8.75 7.90 10.80Q7.65 11.74 7.58 11.90Q7.52 12.06 7.40 12.18Q7.28 12.29 6.89 12.20Q6.56 12.09 6.46 11.98Q6.36 11.88 6.29 11.79Q6.22 11.68 5.85 10.98Q5.41 10.22 4.56 9.16Q4.01 8.55 3.89 8.20Q3.71 7.69 4.07 7.41Q4.43 7.12 4.80 7.19Q5.21 7.27 5.72 7.73Q6.24 8.20 6.66 8.89Z" fill="#585858"/></svg>
