<svg xmlns="http://www.w3.org/2000/svg" width="16" height="16" viewBox="0 0 16 16">
    <defs>
        <linearGradient id="rvt-g" x1="4.45" y1="14.75" x2="4.45" y2="8" gradientUnits="userSpaceOnUse">
            <stop offset="0" stop-color="#719c57"/>
            <stop offset="1" stop-color="#80ab67"/>
        </linearGradient>
    </defs>
    <polygon fill="#979584" points="9.5 1 1.5 1 1.5 11 4.5 12 9.5 12"/>
    <rect fill="#f4f0d6" x="2.5" y="2" width="6" height="9"/>
    <g fill="#cecca8">
        <rect x="3" y="3" width="4.5" height="1"/>
        <rect x="3" y="5" width="4.5" height="1"/>
        <rect x="3" y="7" width="3.5" height="1"/>
    </g>
    <rect fill="#979584" x="7" y="4" width="8.5" height="10.5"/>
    <rect fill="#f4f0d6" x="8" y="5" width="6.5" height="8.5"/>
    <g fill="#cecca8">
        <rect x="8.8" y="7" width="5" height="1"/>
        <rect x="8.8" y="9" width="5" height="1"/>
        <rect x="9.5" y="11" width="4" height="1"/>
    </g>
    <path fill="url(#rvt-g)"
          d="M3.83,10.54c-1.37-.15-2.44-.78-3.19-1.42,0,.01,0,.03,0,.04.13.75.53,1.43,1.2,2.04,1.03.92,2.28,1.04,2.92,1.03h0c.07,0,.13.03.18.07s.07.11.07.18v1.73l3.26-2.83-3.26-2.83v1.75c0,.13-.1.24-.23.25-.35.02-.65.02-.95-.01Z"/>
    <path fill="#557f3c"
          d="M8.82,11.19l-3.9-3.38c-.08-.06-.18-.08-.27-.04-.09.04-.15.13-.15.23v2.06c-.22,0-.43,0-.63-.02-1.53-.16-2.67-1.01-3.35-1.7-.07-.07-.18-.09-.27-.06-.09.04-.15.12-.16.22,0,.25,0,.49.05.73.15.86.6,1.65,1.36,2.32,1.03.92,2.24,1.13,3,1.16v2.03c0,.1.06.19.15.23.03.01.07.02.1.02.06,0,.12-.02.16-.06l3.9-3.37c.05-.05.09-.12.09-.19s-.03-.14-.09-.19ZM5.01,14.2v-1.73c0-.07-.03-.13-.07-.18s-.11-.07-.18-.07h0c-.64,0-1.89-.11-2.92-1.03-.67-.6-1.07-1.29-1.2-2.04,0-.01,0-.02,0-.04.75.63,1.83,1.27,3.19,1.42.3.03.6.04.95.01.13,0,.23-.12.23-.25v-1.75l3.26,2.83-3.26,2.83Z"/>
</svg>
